<svg width="44" height="48" viewBox="0 0 44 48" fill="none" xmlns="http://www.w3.org/2000/svg">
<path d="M38.6433 17.8045C38.6433 17.8045 37.3657 33.6503 36.6246 40.325C36.2717 43.513 34.3025 45.381 31.0769 45.4399C24.9385 45.5504 18.7932 45.5575 12.6572 45.4281C9.55396 45.3646 7.61765 43.473 7.27179 40.3415C6.52597 33.6079 5.25549 17.8045 5.25549 17.8045" stroke="#D84A4A" stroke-width="4" stroke-linecap="round" stroke-linejoin="round"/>
<path d="M41.8978 10.2088H2" stroke="#D84A4A" stroke-width="4" stroke-linecap="round" stroke-linejoin="round"/>
<path d="M34.21 10.2087C32.3631 10.2087 30.7727 8.90295 30.4103 7.09369L29.8386 4.23275C29.4857 2.91286 28.2905 2 26.9283 2H16.9691C15.6069 2 14.4117 2.91286 14.0588 4.23275L13.4871 7.09369C13.1247 8.90295 11.5343 10.2087 9.68738 10.2087" stroke="#D84A4A" stroke-width="3" stroke-linecap="round" stroke-linejoin="round"/>
</svg>
